<mxfile host="Electron" modified="2024-07-08T20:55:43.617Z" agent="Mozilla/5.0 (Windows NT 10.0; Win64; x64) AppleWebKit/537.36 (KHTML, like Gecko) draw.io/24.5.3 Chrome/124.0.6367.207 Electron/30.0.6 Safari/537.36" etag="4MUvo8NZ0SaRjhhjSpbC" version="24.5.3" type="device">
  <diagram name="Page-1" id="_t96Ewz8hRf8Cr2JOSWY">
    <mxGraphModel dx="1050" dy="621" grid="1" gridSize="10" guides="1" tooltips="1" connect="1" arrows="1" fold="1" page="1" pageScale="1" pageWidth="900" pageHeight="1600" math="0" shadow="0">
      <root>
        <mxCell id="0" />
        <mxCell id="1" parent="0" />
        <mxCell id="e1GBL1pbKROA-p7Fh4B_-6" value="" style="edgeStyle=orthogonalEdgeStyle;rounded=0;orthogonalLoop=1;jettySize=auto;html=1;" parent="1" source="e1GBL1pbKROA-p7Fh4B_-1" target="e1GBL1pbKROA-p7Fh4B_-5" edge="1">
          <mxGeometry relative="1" as="geometry" />
        </mxCell>
        <mxCell id="e1GBL1pbKROA-p7Fh4B_-7" value="4 bits" style="edgeLabel;html=1;align=center;verticalAlign=middle;resizable=0;points=[];" parent="e1GBL1pbKROA-p7Fh4B_-6" vertex="1" connectable="0">
          <mxGeometry x="-0.3027" y="1" relative="1" as="geometry">
            <mxPoint as="offset" />
          </mxGeometry>
        </mxCell>
        <mxCell id="e1GBL1pbKROA-p7Fh4B_-1" value="4 bit shift register" style="rounded=0;whiteSpace=wrap;html=1;fillColor=#e1d5e7;strokeColor=#9673a6;" parent="1" vertex="1">
          <mxGeometry x="100" y="50" width="180" height="70" as="geometry" />
        </mxCell>
        <mxCell id="e1GBL1pbKROA-p7Fh4B_-4" value="" style="edgeStyle=orthogonalEdgeStyle;rounded=0;orthogonalLoop=1;jettySize=auto;html=1;" parent="1" source="e1GBL1pbKROA-p7Fh4B_-2" target="e1GBL1pbKROA-p7Fh4B_-1" edge="1">
          <mxGeometry relative="1" as="geometry" />
        </mxCell>
        <mxCell id="e1GBL1pbKROA-p7Fh4B_-2" value="RX" style="text;html=1;align=center;verticalAlign=middle;whiteSpace=wrap;rounded=0;" parent="1" vertex="1">
          <mxGeometry x="10" y="70" width="40" height="30" as="geometry" />
        </mxCell>
        <mxCell id="e1GBL1pbKROA-p7Fh4B_-21" value="" style="edgeStyle=orthogonalEdgeStyle;rounded=0;orthogonalLoop=1;jettySize=auto;html=1;" parent="1" source="e1GBL1pbKROA-p7Fh4B_-5" target="e1GBL1pbKROA-p7Fh4B_-8" edge="1">
          <mxGeometry relative="1" as="geometry" />
        </mxCell>
        <mxCell id="e1GBL1pbKROA-p7Fh4B_-5" value="RX decide" style="rounded=0;whiteSpace=wrap;html=1;fillColor=#e1d5e7;strokeColor=#9673a6;" parent="1" vertex="1">
          <mxGeometry x="130" y="170" width="120" height="60" as="geometry" />
        </mxCell>
        <mxCell id="e1GBL1pbKROA-p7Fh4B_-12" value="" style="edgeStyle=orthogonalEdgeStyle;rounded=0;orthogonalLoop=1;jettySize=auto;html=1;" parent="1" source="e1GBL1pbKROA-p7Fh4B_-8" target="e1GBL1pbKROA-p7Fh4B_-11" edge="1">
          <mxGeometry relative="1" as="geometry" />
        </mxCell>
        <mxCell id="e1GBL1pbKROA-p7Fh4B_-8" value="8 bit shift register" style="rounded=0;whiteSpace=wrap;html=1;fillColor=#e1d5e7;strokeColor=#9673a6;" parent="1" vertex="1">
          <mxGeometry x="95" y="270" width="190" height="90" as="geometry" />
        </mxCell>
        <mxCell id="e1GBL1pbKROA-p7Fh4B_-10" value="baud enable" style="text;html=1;align=center;verticalAlign=middle;whiteSpace=wrap;rounded=0;" parent="1" vertex="1">
          <mxGeometry x="150" y="270" width="80" height="20" as="geometry" />
        </mxCell>
        <mxCell id="e1GBL1pbKROA-p7Fh4B_-11" value="FIFO" style="rounded=0;whiteSpace=wrap;html=1;fillColor=#e1d5e7;strokeColor=#9673a6;" parent="1" vertex="1">
          <mxGeometry x="330" y="160" width="150" height="120" as="geometry" />
        </mxCell>
        <mxCell id="e1GBL1pbKROA-p7Fh4B_-15" value="" style="edgeStyle=orthogonalEdgeStyle;rounded=0;orthogonalLoop=1;jettySize=auto;html=1;" parent="1" source="e1GBL1pbKROA-p7Fh4B_-13" target="e1GBL1pbKROA-p7Fh4B_-14" edge="1">
          <mxGeometry relative="1" as="geometry" />
        </mxCell>
        <mxCell id="e1GBL1pbKROA-p7Fh4B_-13" value="counter" style="rounded=0;whiteSpace=wrap;html=1;fillColor=#e1d5e7;strokeColor=#9673a6;" parent="1" vertex="1">
          <mxGeometry x="492.76" y="55" width="120" height="60" as="geometry" />
        </mxCell>
        <mxCell id="e1GBL1pbKROA-p7Fh4B_-16" value="" style="edgeStyle=orthogonalEdgeStyle;rounded=0;orthogonalLoop=1;jettySize=auto;html=1;" parent="1" source="e1GBL1pbKROA-p7Fh4B_-14" target="e1GBL1pbKROA-p7Fh4B_-1" edge="1">
          <mxGeometry relative="1" as="geometry" />
        </mxCell>
        <mxCell id="16dytEveyVmqVJyVcDVO-10" value="baud x4 enable" style="edgeLabel;html=1;align=center;verticalAlign=middle;resizable=0;points=[];" parent="e1GBL1pbKROA-p7Fh4B_-16" vertex="1" connectable="0">
          <mxGeometry x="-0.0869" y="-1" relative="1" as="geometry">
            <mxPoint as="offset" />
          </mxGeometry>
        </mxCell>
        <mxCell id="e1GBL1pbKROA-p7Fh4B_-19" style="edgeStyle=orthogonalEdgeStyle;rounded=0;orthogonalLoop=1;jettySize=auto;html=1;entryX=0.5;entryY=1;entryDx=0;entryDy=0;" parent="1" source="e1GBL1pbKROA-p7Fh4B_-14" target="e1GBL1pbKROA-p7Fh4B_-13" edge="1">
          <mxGeometry relative="1" as="geometry" />
        </mxCell>
        <mxCell id="e1GBL1pbKROA-p7Fh4B_-14" value="=" style="ellipse;whiteSpace=wrap;html=1;aspect=fixed;fillColor=#ffe6cc;strokeColor=#d79b00;" parent="1" vertex="1">
          <mxGeometry x="422.76" y="65" width="40" height="40" as="geometry" />
        </mxCell>
        <mxCell id="e1GBL1pbKROA-p7Fh4B_-18" value="" style="edgeStyle=orthogonalEdgeStyle;rounded=0;orthogonalLoop=1;jettySize=auto;html=1;" parent="1" source="e1GBL1pbKROA-p7Fh4B_-17" target="e1GBL1pbKROA-p7Fh4B_-14" edge="1">
          <mxGeometry relative="1" as="geometry" />
        </mxCell>
        <mxCell id="e1GBL1pbKROA-p7Fh4B_-17" value="baud &amp;gt;&amp;gt; 2" style="text;html=1;align=center;verticalAlign=middle;whiteSpace=wrap;rounded=0;" parent="1" vertex="1">
          <mxGeometry x="412.76" y="10" width="60" height="20" as="geometry" />
        </mxCell>
        <mxCell id="e1GBL1pbKROA-p7Fh4B_-20" value="reset" style="text;html=1;align=center;verticalAlign=middle;whiteSpace=wrap;rounded=0;" parent="1" vertex="1">
          <mxGeometry x="512.76" y="95" width="80" height="20" as="geometry" />
        </mxCell>
        <mxCell id="16dytEveyVmqVJyVcDVO-1" value="" style="edgeStyle=orthogonalEdgeStyle;rounded=0;orthogonalLoop=1;jettySize=auto;html=1;" parent="1" source="16dytEveyVmqVJyVcDVO-2" target="16dytEveyVmqVJyVcDVO-4" edge="1">
          <mxGeometry relative="1" as="geometry" />
        </mxCell>
        <mxCell id="16dytEveyVmqVJyVcDVO-2" value="counter" style="rounded=0;whiteSpace=wrap;html=1;fillColor=#e1d5e7;strokeColor=#9673a6;" parent="1" vertex="1">
          <mxGeometry x="400" y="330" width="120" height="60" as="geometry" />
        </mxCell>
        <mxCell id="16dytEveyVmqVJyVcDVO-3" style="edgeStyle=orthogonalEdgeStyle;rounded=0;orthogonalLoop=1;jettySize=auto;html=1;entryX=0.5;entryY=1;entryDx=0;entryDy=0;" parent="1" source="16dytEveyVmqVJyVcDVO-4" target="16dytEveyVmqVJyVcDVO-2" edge="1">
          <mxGeometry relative="1" as="geometry" />
        </mxCell>
        <mxCell id="16dytEveyVmqVJyVcDVO-9" style="edgeStyle=orthogonalEdgeStyle;rounded=0;orthogonalLoop=1;jettySize=auto;html=1;entryX=0.5;entryY=1;entryDx=0;entryDy=0;" parent="1" source="16dytEveyVmqVJyVcDVO-4" target="e1GBL1pbKROA-p7Fh4B_-8" edge="1">
          <mxGeometry relative="1" as="geometry" />
        </mxCell>
        <mxCell id="16dytEveyVmqVJyVcDVO-4" value="=" style="ellipse;whiteSpace=wrap;html=1;aspect=fixed;fillColor=#ffe6cc;strokeColor=#d79b00;" parent="1" vertex="1">
          <mxGeometry x="330" y="340" width="40" height="40" as="geometry" />
        </mxCell>
        <mxCell id="16dytEveyVmqVJyVcDVO-5" value="" style="edgeStyle=orthogonalEdgeStyle;rounded=0;orthogonalLoop=1;jettySize=auto;html=1;" parent="1" source="16dytEveyVmqVJyVcDVO-6" target="16dytEveyVmqVJyVcDVO-4" edge="1">
          <mxGeometry relative="1" as="geometry" />
        </mxCell>
        <mxCell id="16dytEveyVmqVJyVcDVO-6" value="4" style="text;html=1;align=center;verticalAlign=middle;whiteSpace=wrap;rounded=0;" parent="1" vertex="1">
          <mxGeometry x="320" y="400" width="60" height="20" as="geometry" />
        </mxCell>
        <mxCell id="16dytEveyVmqVJyVcDVO-7" value="reset" style="text;html=1;align=center;verticalAlign=middle;whiteSpace=wrap;rounded=0;" parent="1" vertex="1">
          <mxGeometry x="420" y="370" width="80" height="20" as="geometry" />
        </mxCell>
        <mxCell id="16dytEveyVmqVJyVcDVO-11" value="enable" style="text;html=1;align=center;verticalAlign=middle;whiteSpace=wrap;rounded=0;" parent="1" vertex="1">
          <mxGeometry x="430" y="330" width="60" height="20" as="geometry" />
        </mxCell>
        <mxCell id="16dytEveyVmqVJyVcDVO-14" style="edgeStyle=orthogonalEdgeStyle;rounded=0;orthogonalLoop=1;jettySize=auto;html=1;entryX=0.5;entryY=0;entryDx=0;entryDy=0;" parent="1" source="16dytEveyVmqVJyVcDVO-12" target="16dytEveyVmqVJyVcDVO-11" edge="1">
          <mxGeometry relative="1" as="geometry" />
        </mxCell>
        <mxCell id="16dytEveyVmqVJyVcDVO-12" value="&lt;span style=&quot;font-size: 11px; text-wrap: nowrap; background-color: rgb(255, 255, 255);&quot;&gt;baud x4 enable&lt;/span&gt;" style="text;html=1;align=center;verticalAlign=middle;whiteSpace=wrap;rounded=0;" parent="1" vertex="1">
          <mxGeometry x="418.62" y="290" width="82.76" height="20" as="geometry" />
        </mxCell>
        <mxCell id="CH14csRJlorEVwbIsVeE-2" style="edgeStyle=orthogonalEdgeStyle;rounded=0;orthogonalLoop=1;jettySize=auto;html=1;entryX=0;entryY=0.5;entryDx=0;entryDy=0;" edge="1" parent="1" source="CH14csRJlorEVwbIsVeE-1" target="e1GBL1pbKROA-p7Fh4B_-8">
          <mxGeometry relative="1" as="geometry" />
        </mxCell>
        <mxCell id="CH14csRJlorEVwbIsVeE-1" value="FSM en" style="text;html=1;align=center;verticalAlign=middle;whiteSpace=wrap;rounded=0;" vertex="1" parent="1">
          <mxGeometry y="300" width="60" height="30" as="geometry" />
        </mxCell>
      </root>
    </mxGraphModel>
  </diagram>
</mxfile>
